<svg xmlns="http://www.w3.org/2000/svg" viewBox="86 196.43 203.203 146.513">
  <defs>
    <style>
      .cls-1 {
        fill: #e74c3c;
      }
    </style>
  </defs>
  <path id="path3492" class="cls-1" d="M1679.781,0q-7.137,0-7.137,5.25,0,5.376,7.137,5.38h9.043V135.892h-9.043q-7.137,0-7.137,5.37,0,5.251,7.137,5.251h28.8q7.137,0,7.137-5.251,0-5.375-7.137-5.37h-9.053V81.137h15.008v-10.5h-15.008V10.631h45.912a41.364,41.364,0,0,1,24.592,8.121q10.217,7.336,11.99,17.152c2.731,1.79,7.765,5.238,10.655,10.111a32.786,32.786,0,0,0,.428-5.38q0-17.376-15.171-29.383A50.733,50.733,0,0,0,1745.7.13Zm-34.6,24.562q-7.137,0-7.137,5.251,0,5.376,7.137,5.37h9.054v86.858h-9.054q-7.137,0-7.137,5.38,0,5.25,7.137,5.25h28.8q7.137,0,7.137-5.25,0-5.375-7.137-5.38h-9.043V80.987h18.658v-10.5h-18.658v-35.3h9.043q7.137,0,7.137-5.37,0-5.25-7.137-5.251Zm160.126,0q-7.137,0-7.137,5.251,0,5.376,7.137,5.37h9.054l-.132,35.3h-12.6a38.367,38.367,0,0,1-.581,10.5h13.184v41.054H1805.3c-4.772.163-7.137,1.8-7.137,5.38q0,5.25,7.137,5.25h28.8q7.137,0,7.137-5.25,0-5.375-7.137-5.38h-9.044V35.183h9.044q7.137,0,7.137-5.37,0-5.25-7.137-5.251ZM1754.619,33.3l-44.556.12q-7.137,0-7.137,5.25,0,5.376,7.137,5.38h9.044v61.005h-9.044q-7.137,0-7.137,5.371a4.844,4.844,0,0,0,1.652,3.75,24.154,24.154,0,0,0,5.485,1.5l44.556-.12c1.4.022,2.766-.018,4.1-.1l-6.852-10.4h-22.053V43.8h25.826c30.481-.246,39.806,40.353,19.637,55.585l5.588,8.391C1808.7,87.27,1801.131,33.309,1754.619,33.3Zm20.249,23.552a41.743,41.743,0,0,1-9.421,6.531,65.23,65.23,0,0,1-29.72,7.241V81.137h6.913l43.077,65.256,17.71.12q7.137,0,7.137-5.251,0-5.375-7.137-5.37h-9.043L1756.27,78.387q15.055-5.008,23.96-12.231C1779.641,64.055,1778.085,59.6,1774.867,56.855Z" transform="translate(-1552.039 196.43)"/>
</svg>
